<mxfile host="app.diagrams.net" modified="2021-04-13T06:09:52.183Z" agent="5.0 (X11; Linux x86_64) AppleWebKit/537.36 (KHTML, like Gecko) Chrome/88.0.4324.182 Safari/537.36" etag="rbhbXdnEax-YmGuur574" version="14.1.9" type="github">
  <diagram id="KEnG766yOONvj4ruCacH" name="Halaman-1">
    <mxGraphModel dx="1088" dy="1018" grid="1" gridSize="10" guides="1" tooltips="1" connect="1" arrows="1" fold="1" page="1" pageScale="1" pageWidth="2000" pageHeight="2000" math="0" shadow="0">
      <root>
        <mxCell id="0" />
        <mxCell id="1" parent="0" />
        <mxCell id="IFljUYkTpTAAz3V6eXWY-1" value="&lt;font size=&quot;3&quot;&gt;E&lt;/font&gt;" style="whiteSpace=wrap;html=1;aspect=fixed;" vertex="1" parent="1">
          <mxGeometry x="70" y="60" width="80" height="80" as="geometry" />
        </mxCell>
        <mxCell id="IFljUYkTpTAAz3V6eXWY-2" value="&lt;font size=&quot;3&quot;&gt;K&lt;/font&gt;" style="whiteSpace=wrap;html=1;aspect=fixed;" vertex="1" parent="1">
          <mxGeometry x="150" y="60" width="80" height="80" as="geometry" />
        </mxCell>
        <mxCell id="IFljUYkTpTAAz3V6eXWY-3" value="&lt;font size=&quot;3&quot;&gt;O&lt;/font&gt;" style="whiteSpace=wrap;html=1;aspect=fixed;" vertex="1" parent="1">
          <mxGeometry x="230" y="60" width="80" height="80" as="geometry" />
        </mxCell>
        <mxCell id="IFljUYkTpTAAz3V6eXWY-4" value="&lt;font size=&quot;3&quot;&gt;S&lt;/font&gt;" style="whiteSpace=wrap;html=1;aspect=fixed;" vertex="1" parent="1">
          <mxGeometry x="310" y="60" width="80" height="80" as="geometry" />
        </mxCell>
        <mxCell id="IFljUYkTpTAAz3V6eXWY-5" value="&lt;font size=&quot;3&quot;&gt;A&lt;/font&gt;" style="whiteSpace=wrap;html=1;aspect=fixed;" vertex="1" parent="1">
          <mxGeometry x="390" y="60" width="80" height="80" as="geometry" />
        </mxCell>
        <mxCell id="IFljUYkTpTAAz3V6eXWY-6" value="&lt;font size=&quot;3&quot;&gt;P&lt;/font&gt;" style="whiteSpace=wrap;html=1;aspect=fixed;" vertex="1" parent="1">
          <mxGeometry x="470" y="60" width="80" height="80" as="geometry" />
        </mxCell>
        <mxCell id="IFljUYkTpTAAz3V6eXWY-7" value="&lt;font size=&quot;3&quot;&gt;U&lt;/font&gt;" style="whiteSpace=wrap;html=1;aspect=fixed;" vertex="1" parent="1">
          <mxGeometry x="550" y="60" width="80" height="80" as="geometry" />
        </mxCell>
        <mxCell id="IFljUYkTpTAAz3V6eXWY-8" value="&lt;font size=&quot;3&quot;&gt;T&lt;/font&gt;" style="whiteSpace=wrap;html=1;aspect=fixed;" vertex="1" parent="1">
          <mxGeometry x="630" y="60" width="80" height="80" as="geometry" />
        </mxCell>
        <mxCell id="IFljUYkTpTAAz3V6eXWY-9" value="&lt;font size=&quot;3&quot;&gt;R&lt;/font&gt;" style="whiteSpace=wrap;html=1;aspect=fixed;" vertex="1" parent="1">
          <mxGeometry x="710" y="60" width="80" height="80" as="geometry" />
        </mxCell>
        <mxCell id="IFljUYkTpTAAz3V6eXWY-10" value="&lt;font size=&quot;3&quot;&gt;A&lt;/font&gt;" style="whiteSpace=wrap;html=1;aspect=fixed;" vertex="1" parent="1">
          <mxGeometry x="790" y="60" width="80" height="80" as="geometry" />
        </mxCell>
        <mxCell id="IFljUYkTpTAAz3V6eXWY-11" value="&lt;font size=&quot;3&quot;&gt;E&lt;/font&gt;" style="whiteSpace=wrap;html=1;aspect=fixed;" vertex="1" parent="1">
          <mxGeometry x="870" y="60" width="80" height="80" as="geometry" />
        </mxCell>
        <mxCell id="IFljUYkTpTAAz3V6eXWY-12" value="&lt;font size=&quot;3&quot;&gt;K&lt;/font&gt;" style="whiteSpace=wrap;html=1;aspect=fixed;" vertex="1" parent="1">
          <mxGeometry x="950" y="60" width="80" height="80" as="geometry" />
        </mxCell>
        <mxCell id="IFljUYkTpTAAz3V6eXWY-13" value="&lt;font size=&quot;3&quot;&gt;O&lt;/font&gt;" style="whiteSpace=wrap;html=1;aspect=fixed;" vertex="1" parent="1">
          <mxGeometry x="1030" y="60" width="80" height="80" as="geometry" />
        </mxCell>
        <mxCell id="IFljUYkTpTAAz3V6eXWY-14" value="&lt;font size=&quot;3&quot;&gt;S&lt;/font&gt;" style="whiteSpace=wrap;html=1;aspect=fixed;" vertex="1" parent="1">
          <mxGeometry x="1110" y="60" width="80" height="80" as="geometry" />
        </mxCell>
        <mxCell id="IFljUYkTpTAAz3V6eXWY-15" value="&lt;font size=&quot;3&quot;&gt;A&lt;/font&gt;" style="whiteSpace=wrap;html=1;aspect=fixed;" vertex="1" parent="1">
          <mxGeometry x="1190" y="60" width="80" height="80" as="geometry" />
        </mxCell>
      </root>
    </mxGraphModel>
  </diagram>
</mxfile>
